<?xml version="1.0" encoding="UTF-8"?>
<!-- Generated by Pixelmator Pro 3.5.7 -->
<svg width="32" height="32" viewBox="0 0 32 32" xmlns="http://www.w3.org/2000/svg">
    <g id="g1">
        <path id="Trazado" fill="#000000" fill-rule="evenodd" stroke="none" d="M 11.927262 29.997425 C 11.18357 29.961891 10.478373 29.650267 9.949456 29.121349 L 2.878386 22.05028 C 2.315528 21.487421 1.99935 20.724558 1.999612 19.929508 C 1.999853 19.133066 2.315687 18.370337 2.878128 17.807896 L 17.020798 3.665226 C 17.583229 3.102795 18.345968 2.786949 19.141726 2.787395 C 19.93745 2.786457 20.700314 3.102634 21.263172 3.665493 L 28.334242 10.736565 C 28.897097 11.299419 29.213278 12.062286 29.212343 12.858013 C 29.212786 13.653769 28.89694 14.416508 28.334511 14.978937 L 15.313314 28.000134 L 28.999926 28.000288 C 29.551468 28.00029 29.999775 28.448597 29.999775 29.000137 C 29.999765 29.551691 29.551727 29.999729 28.9995 30.000414 L 12.07023 30.000126 C 12.047343 30.000389 12.023744 29.999939 12.00015 29.999493 C 11.975163 29.999027 11.951569 29.998581 11.927262 29.997425 Z M 9.242619 14.271833 L 4.292342 19.222111 C 4.105094 19.409359 3.999572 19.663372 3.999724 19.929092 C 3.99918 20.194094 4.105277 20.448624 4.29266 20.636005 L 11.36373 27.707077 C 11.551113 27.894459 11.805639 28.000553 12.070644 28.000011 C 12.336362 28.00016 12.590378 27.894642 12.777626 27.707394 L 17.727903 22.757116 L 9.242619 14.271833 Z"/>
    </g>
</svg>
