<?xml version="1.0" encoding="UTF-8" standalone="no"?>
<!DOCTYPE svg PUBLIC "-//W3C//DTD SVG 1.1//EN" "http://www.w3.org/Graphics/SVG/1.1/DTD/svg11.dtd">
<svg width="100%" height="100%" viewBox="0 0 1080 540" version="1.1" xmlns="http://www.w3.org/2000/svg" xmlns:xlink="http://www.w3.org/1999/xlink" xml:space="preserve" xmlns:serif="http://www.serif.com/" style="fill-rule:evenodd;clip-rule:evenodd;stroke-linejoin:round;stroke-miterlimit:2;">
    <g transform="matrix(1,0,0,1,0,-270)">
        <g transform="matrix(1.97288,0,0,1.97288,-525.079,-525.434)">
            <g>
                <path d="M614.53,493.82L614.53,539.55L603.39,539.55L603.39,512.12L593.16,539.55L584.17,539.55L573.88,512.06L573.88,539.55L562.74,539.55L562.74,493.82L575.9,493.82L588.73,525.48L601.43,493.82L614.53,493.82Z" style="fill:rgb(42,42,42);fill-rule:nonzero;"/>
                <rect x="622.54" y="493.82" width="11.14" height="45.73" style="fill:rgb(42,42,42);fill-rule:nonzero;"/>
                <path d="M682.67,539.56L671.53,539.56L652.9,511.35L652.9,539.56L641.76,539.56L641.76,493.83L652.9,493.83L671.53,522.17L671.53,493.83L682.67,493.83L682.67,539.56Z" style="fill:rgb(42,42,42);fill-rule:nonzero;"/>
                <rect x="690.75" y="493.82" width="11.14" height="45.73" style="fill:rgb(42,42,42);fill-rule:nonzero;"/>
                <path d="M596.81,576.04C598.42,578.1 599.22,580.46 599.22,583.11C599.22,586.93 597.88,589.96 595.21,592.2C592.54,594.44 588.81,595.56 584.04,595.56L562.74,595.56L562.74,549.83L583.33,549.83C587.98,549.83 591.61,550.89 594.24,553.02C596.87,555.15 598.18,558.04 598.18,561.68C598.18,564.37 597.47,566.61 596.06,568.39C594.65,570.17 592.77,571.41 590.43,572.1C593.07,572.66 595.2,573.97 596.81,576.04ZM573.88,568.32L581.18,568.32C583,568.32 584.4,567.92 585.38,567.11C586.36,566.31 586.85,565.12 586.85,563.56C586.85,562 586.36,560.8 585.38,559.98C584.4,559.16 583,558.74 581.18,558.74L573.88,558.74L573.88,568.32ZM586.42,585.29C587.44,584.44 587.95,583.22 587.95,581.61C587.95,580 587.42,578.74 586.35,577.83C585.28,576.92 583.82,576.46 581.95,576.46L573.87,576.46L573.87,586.56L582.08,586.56C583.95,586.56 585.39,586.13 586.42,585.29Z" style="fill:rgb(42,42,42);fill-rule:nonzero;"/>
                <path d="M611.56,593.01C607.98,591.01 605.13,588.22 603.03,584.64C600.92,581.06 599.87,577.03 599.87,572.56C599.87,568.09 600.92,564.07 603.03,560.51C605.14,556.95 607.98,554.17 611.56,552.17C615.14,550.17 619.08,549.17 623.38,549.17C627.68,549.17 631.62,550.17 635.2,552.17C638.78,554.17 641.61,556.95 643.67,560.51C645.73,564.07 646.76,568.09 646.76,572.56C646.76,577.03 645.72,581.06 643.63,584.64C641.54,588.22 638.72,591.01 635.16,593.01C631.6,595.01 627.67,596.01 623.37,596.01C619.09,596 615.15,595 611.56,593.01ZM632.15,582.19C634.34,579.76 635.44,576.54 635.44,572.55C635.44,568.51 634.34,565.29 632.15,562.88C629.96,560.47 627.04,559.26 623.39,559.26C619.7,559.26 616.75,560.45 614.56,562.84C612.37,565.23 611.27,568.46 611.27,572.55C611.27,576.59 612.37,579.81 614.56,582.22C616.75,584.63 619.7,585.84 623.39,585.84C627.03,585.84 629.95,584.62 632.15,582.19Z" style="fill:rgb(42,42,42);fill-rule:nonzero;"/>
                <path d="M677.52,587.47L660.45,587.47L657.71,595.55L646.05,595.55L662.6,549.82L675.5,549.82L692.05,595.55L680.26,595.55L677.52,587.47ZM674.66,578.87L668.99,562.13L663.39,578.87L674.66,578.87Z" style="fill:rgb(42,42,42);fill-rule:nonzero;"/>
                <path d="M716.48,595.55L706.97,578.29L704.3,578.29L704.3,595.55L693.16,595.55L693.16,549.82L711.86,549.82C715.46,549.82 718.54,550.45 721.08,551.71C723.62,552.97 725.52,554.7 726.78,556.89C728.04,559.08 728.67,561.53 728.67,564.22C728.67,567.26 727.81,569.98 726.1,572.36C724.38,574.75 721.85,576.44 718.51,577.44L729.06,595.55L716.48,595.55ZM704.3,570.4L711.21,570.4C713.25,570.4 714.78,569.9 715.8,568.9C716.82,567.9 717.33,566.49 717.33,564.67C717.33,562.93 716.82,561.57 715.8,560.57C714.78,559.57 713.25,559.07 711.21,559.07L704.3,559.07L704.3,570.4Z" style="fill:rgb(42,42,42);fill-rule:nonzero;"/>
                <path d="M761.5,552.68C765.1,554.59 767.89,557.27 769.87,560.73C771.85,564.18 772.83,568.17 772.83,572.68C772.83,577.15 771.84,581.13 769.87,584.6C767.89,588.08 765.09,590.77 761.47,592.68C757.84,594.59 753.64,595.55 748.86,595.55L731.73,595.55L731.73,549.82L748.86,549.82C753.68,549.81 757.89,550.77 761.5,552.68ZM757.98,582.45C760.33,580.15 761.5,576.89 761.5,572.68C761.5,568.47 760.33,565.19 757.98,562.84C755.64,560.49 752.36,559.32 748.14,559.32L742.86,559.32L742.86,585.9L748.14,585.9C752.35,585.9 755.63,584.75 757.98,582.45Z" style="fill:rgb(42,42,42);fill-rule:nonzero;"/>
            </g>
        </g>
        <g transform="matrix(1.97288,0,0,1.97288,-525.079,-525.434)">
            <path d="M497.14,619.74L348.87,619.74C325.53,619.74 306.6,600.82 306.6,577.47L306.6,502.69C306.6,479.35 325.52,460.42 348.87,460.42L497.14,460.42C520.48,460.42 539.41,479.34 539.41,502.69L539.41,577.47C539.41,600.81 520.48,619.74 497.14,619.74Z" style="fill:rgb(20,96,255);fill-rule:nonzero;"/>
        </g>
        <g transform="matrix(1.97288,0,0,1.97288,-525.079,-525.434)">
            <path d="M511.28,567.19C505.06,590.24 460.2,598.18 411.08,584.92C387.22,578.48 377.31,561.24 363.27,549.75C348.42,537.59 330.21,531.03 333.41,519.18C339.63,496.13 384.49,488.19 433.61,501.45C453.74,506.88 481.07,508.3 494.54,517.61C513.95,531.02 514.95,553.58 511.28,567.19Z" style="fill:rgb(255,139,246);fill-rule:nonzero;"/>
        </g>
        <g transform="matrix(1.97288,0,0,1.97288,-525.079,-525.434)">
            <path d="M479.96,556.6C475.54,572.96 443.7,578.59 408.84,569.18C391.9,564.61 384.87,552.37 374.91,544.22C364.37,535.59 351.45,530.93 353.72,522.52C358.14,506.16 389.98,500.53 424.84,509.94C439.13,513.8 458.52,514.8 468.09,521.41C481.86,530.93 482.57,546.94 479.96,556.6Z" style="fill:rgb(42,42,42);fill-rule:nonzero;"/>
        </g>
        <g transform="matrix(1.97288,0,0,1.97288,-525.079,-525.434)">
            <circle cx="478.85" cy="512.39" r="23.02" style="fill:white;"/>
        </g>
    </g>
</svg>
