<?xml version="1.0" encoding="UTF-8" standalone="no"?>
<!DOCTYPE svg PUBLIC "-//W3C//DTD SVG 1.1//EN" "http://www.w3.org/Graphics/SVG/1.1/DTD/svg11.dtd">
<svg width="100%" height="100%" viewBox="0 0 1080 1080" version="1.1" xmlns="http://www.w3.org/2000/svg" xmlns:xlink="http://www.w3.org/1999/xlink" xml:space="preserve" xmlns:serif="http://www.serif.com/" style="fill-rule:evenodd;clip-rule:evenodd;stroke-linejoin:round;stroke-miterlimit:2;">
    <g transform="matrix(1,0,0,1,-1215,0)">
        <g id="Página-2" serif:id="Página 2" transform="matrix(1,0,0,1,1215,0)">
            <rect x="0" y="0" width="1080" height="1080" style="fill:none;"/>
            <g id="Capa-1" serif:id="Capa 1">
                <g transform="matrix(1,0,0,1,711.018,791.353)">
                    <path d="M0,-539.233L-342.035,-539.233C-396.49,-539.233 -440.634,-495.089 -440.634,-440.634L-440.634,-98.599C-440.634,-44.144 -396.49,0 -342.035,0L0,0C54.455,0 98.599,-44.144 98.599,-98.599L98.599,-440.634C98.599,-495.089 54.455,-539.233 0,-539.233" style="fill:rgb(20,96,255);fill-rule:nonzero;"/>
                </g>
                <g transform="matrix(1,0,0,1,744.512,469.114)">
                    <path d="M0,111.246C-14.416,164.646 -118.349,183.033 -232.139,152.313C-287.421,137.389 -310.377,97.449 -342.893,70.829C-377.306,42.655 -419.485,27.457 -412.072,-0C-397.656,-53.401 -293.723,-71.787 -179.933,-41.067C-133.302,-28.478 -69.987,-25.207 -38.767,-3.629C6.197,27.448 8.509,79.729 0,111.246" style="fill:rgb(255,139,246);fill-rule:nonzero;"/>
                </g>
                <g transform="matrix(1,0,0,1,655.651,480.082)">
                    <path d="M0,72.162C-9.351,106.801 -76.768,118.727 -150.58,98.801C-186.439,89.12 -201.33,63.213 -222.421,45.945C-244.744,27.67 -272.104,17.811 -267.296,0.001C-257.944,-34.638 -190.527,-46.565 -116.716,-26.638C-86.468,-18.472 -45.398,-16.35 -25.147,-2.353C4.02,17.805 5.519,51.718 0,72.162" style="fill:rgb(42,42,42);fill-rule:nonzero;"/>
                </g>
                <g transform="matrix(0,-1,-1,0,660.067,414.112)">
                    <path d="M-53.332,-53.332C-82.786,-53.332 -106.664,-29.454 -106.664,0C-106.664,29.454 -82.786,53.332 -53.332,53.332C-23.878,53.332 0,29.454 0,0C0,-29.454 -23.878,-53.332 -53.332,-53.332" style="fill:white;fill-rule:nonzero;"/>
                </g>
            </g>
        </g>
    </g>
</svg>
