<?xml version="1.0" encoding="UTF-8" standalone="no"?>
<!DOCTYPE svg PUBLIC "-//W3C//DTD SVG 1.1//EN" "http://www.w3.org/Graphics/SVG/1.1/DTD/svg11.dtd">
<svg width="100%" height="100%" viewBox="0 0 700 700" version="1.1" xmlns="http://www.w3.org/2000/svg" xmlns:xlink="http://www.w3.org/1999/xlink" xml:space="preserve" xmlns:serif="http://www.serif.com/" style="fill-rule:evenodd;clip-rule:evenodd;stroke-linejoin:round;stroke-miterlimit:2;">
    <g transform="matrix(1.25662,0,0,1.25662,-89.8144,-13.8249)">
        <path d="M128.24,386.96L193.201,451.921L166.322,451.921C158.318,451.921 150.924,456.187 146.924,463.12C142.92,470.05 142.92,478.589 146.924,485.518C150.924,492.448 158.319,496.717 166.322,496.717L441.282,496.717C449.282,496.717 456.677,492.448 460.68,485.518C464.68,478.588 464.68,470.049 460.68,463.12C456.676,456.186 449.282,451.921 441.282,451.921L414.399,451.921L571.759,294.561C582.189,284.069 588.04,269.877 588.04,255.081C588.04,240.288 582.188,226.097 571.759,215.604L435.679,79.524C425.187,69.094 410.995,63.239 396.199,63.239C381.406,63.239 367.211,69.094 356.719,79.524L128.239,308.004C117.809,318.496 111.958,332.692 111.958,347.484C111.958,362.276 117.81,376.472 128.239,386.964L128.24,386.96ZM388.08,111.44C392.436,107.171 399.408,107.171 403.764,111.44L540.404,247.52C544.674,251.876 544.674,258.844 540.404,263.2L415.524,387.52L263.764,235.76L388.08,111.44ZM159.6,339.92L232.397,267.119L384.157,419.439L351.118,452.478L256.477,452.478L159.598,355.599C155.328,351.243 155.328,344.271 159.598,339.919L159.6,339.92Z" style="fill-rule:nonzero;"/>
    </g>
</svg>
